<?xml version="1.0" standalone="no"?>
<!DOCTYPE svg PUBLIC "-//W3C//DTD SVG 1.1//EN" "http://www.w3.org/Graphics/SVG/1.1/DTD/svg11.dtd">
<svg viewBox="0 0 580 180" preserveAspectRatio="xMinYMin meet" version="1.1" xmlns="http://www.w3.org/2000/svg"><path d="M30.000,146.230L49.643,61.311L69.286,77.377L88.929,93.443L108.571,132.459L128.214,150.820L147.857,68.197L167.500,20.000L187.143,75.082L206.786,127.869L226.429,132.459L246.071,137.049L265.714,114.098L285.357,137.049L305.000,155.410L324.643,139.344L344.286,160.000L363.929,150.820L383.571,137.049L403.214,155.410L422.857,146.230L442.500,160.000L462.143,160.000L481.786,155.410L501.429,160.000L521.071,150.820L540.714,160.000L560.357,160.000L580.000,160.000V160H30Z" stroke="#7760c3" fill="rgba(119,96,195,0.3125)" stroke-width="0"></path><g font-size="9px" fill="#888888" text-anchor="end" font-family="-apple-system, Verdana"><text x="25" y="129.00">25</text><text x="25" y="94.00">50</text><text x="25" y="59.00">75</text><text x="25" y="24.00">$100</text></g><g text-anchor="middle" font-family="-apple-system, Verdana" font-size="10px" fill="#888888"><text x="42" y="175">Feb 1</text><text x="129.03" y="175">Feb 6</text><text x="227.25" y="175">Feb 11</text><text x="325.46" y="175">Feb 16</text><text x="423.68" y="175">Feb 21</text><text x="521.89" y="175">Feb 26</text></g></svg>
