<?xml version="1.0" standalone="no"?>
<!DOCTYPE svg PUBLIC "-//W3C//DTD SVG 1.1//EN" "http://www.w3.org/Graphics/SVG/1.1/DTD/svg11.dtd">
<svg viewBox="0 0 580 180" version="1.1" xmlns="http://www.w3.org/2000/svg"><path d="M30.000,160.000L37.432,160.000L44.865,160.000L52.297,110.820L59.730,140.328L67.162,140.328L74.595,160.000L82.027,150.164L89.459,150.164L96.892,105.902L104.324,160.000L111.757,160.000L119.189,160.000L126.622,150.164L134.054,150.164L141.486,140.328L148.919,10.000L156.351,160.000L163.784,150.164L171.216,160.000L178.649,160.000L186.081,110.820L193.514,150.164L200.946,160.000L208.378,160.000L215.811,160.000L223.243,160.000L230.676,160.000L238.108,160.000L245.541,160.000L252.973,160.000L260.405,160.000L267.838,160.000L275.270,160.000L282.703,160.000L290.135,160.000L297.568,160.000L305.000,150.164L312.432,160.000L319.865,160.000L327.297,160.000L334.730,160.000L342.162,160.000L349.595,160.000L357.027,150.164L364.459,160.000L371.892,160.000L379.324,160.000L386.757,160.000L394.189,150.164L401.622,96.066L409.054,115.738L416.486,140.328L423.919,150.164L431.351,160.000L438.784,130.492L446.216,150.164L453.649,125.574L461.081,160.000L468.514,160.000L475.946,160.000L483.378,160.000L490.811,160.000L498.243,160.000L505.676,160.000L513.108,130.492L520.541,150.164L527.973,150.164L535.405,150.164L542.838,160.000L550.270,160.000L557.703,160.000L565.135,160.000L572.568,150.164L580.000,160.000V160H30Z" stroke="#7760c3" fill="rgba(119,96,195,0.3125)" stroke-width="0"></path><g text-anchor="end" font-family="-apple-system, Verdana" font-size="10px" fill="#888888"><text x="28.00" y="126.50">7</text><text x="28.00" y="89.00">15</text><text x="28.00" y="51.50">22</text><text x="28.00" y="14.00">$30</text></g><g text-anchor="middle" font-family="-apple-system, Verdana" font-size="10px" fill="#888888"><text x="42" y="174.00">Mar 1</text><text x="114.39" y="174.00">Mar 12</text><text x="198.47" y="174.00">Mar 23</text><text x="282.55" y="174.00">Apr 3</text><text x="366.62" y="174.00">Apr 14</text><text x="450.70" y="174.00">Apr 25</text><text x="534.78" y="174.00">May 6</text></g></svg>
