<svg xmlns="http://www.w3.org/2000/svg" viewBox="0 0 16 16"><g fill="#000" fill-rule="nonzero"><path d="m5.798 3.009-.21.018a8.316 8.316 0 0 0-.286.023c-.044.004-.163.013-.263.023-.101.006-.23.018-.286.022-.057.007-.16.016-.229.023a.424.424 0 0 0-.14.03c-.009.012-.249.96-.26 1.034 0 .007-.02.085-.044.174l-.041.165-.254.016-.302.022c-.025.003-.137.014-.251.021-.113.01-.236.02-.275.025a5.772 5.772 0 0 1-.263.023c-.107.01-.231.018-.274.023l-.28.023c-.13.011-.2.027-.21.046-.007.022-.334 1.324-.393 1.571l-.019.08c-.004.023-.11.437-.23.922-.23.913-.236.935-.255 1.027a.354.354 0 0 1-.02.07 43.867 43.867 0 0 1-.197.79l-.17.684c-.015.069-.148.615-.162.661-.011.034-.002.039.053.03.034-.007.146-.019.247-.025.1-.007.22-.016.263-.023.044-.005.174-.016.286-.023.114-.01.242-.018.286-.023.043-.005.167-.014.274-.023.108-.007.236-.018.286-.023a82.02 82.02 0 0 1 1.35-.112l.309-.025c.094-.01.217-.018.274-.023.057-.007.176-.016.263-.023.09-.007.218-.016.286-.023.069-.004.2-.016.286-.023.09-.006.206-.018.263-.022a8.24 8.24 0 0 1 .275-.023 20.637 20.637 0 0 0 .549-.048c.093-.007.178-.026.187-.042.016-.022.071-.258.064-.27a.247.247 0 0 1 .02-.07.699.699 0 0 0 .035-.115c.005-.027.085-.343.174-.702l.172-.686.123-.503a387.37 387.37 0 0 1 .588-2.372c.002-.016.064-.263.135-.55.07-.288.133-.532.133-.544.002-.014-.032-.023-.076-.02a8.839 8.839 0 0 0-.597.043c-.03.005-.142.014-.25.023a11.76 11.76 0 0 0-.285.023c-.05.004-.163.016-.252.023-.158.011-.375.03-.528.045-.053.005-.078-.002-.078-.022 0-.019.041-.204.094-.417l.103-.418c.002-.019.032-.14.064-.27.034-.13.06-.24.06-.245a.314.314 0 0 0-.122.005Zm-.005 2.71c-.009.025-.155.613-.183.734-.025.108-.036.122-.107.126a3.579 3.579 0 0 0-.435.041c-.045.028-.032-.068.062-.45.057-.231.108-.423.114-.428a.968.968 0 0 1 .174-.018c.094-.007.172-.014.174-.019a.398.398 0 0 1 .11-.009c.073-.004.098.003.091.023Zm-2.202.572c-.055.231-.11.425-.117.435-.018.02-.112.034-.348.052l-.194.014.103-.423c.06-.231.112-.428.119-.435a.83.83 0 0 1 .206-.027 2.216 2.216 0 0 0 .267-.028l.069-.004-.105.416Zm1.617 1.754a.2.2 0 0 0-.02.071 4.62 4.62 0 0 1-.083.355c-.076.309-.09.345-.133.348-.025 0-.135.006-.242.016-.227.02-.21.02-.243.016-.025-.003.156-.771.19-.806a.905.905 0 0 1 .224-.032c.115-.009.209-.018.21-.02.003 0 .03-.005.063-.005.052-.004.054 0 .034.057ZM3.119 8.2a2.754 2.754 0 0 0-.068.26c-.03.142-.126.508-.137.52a.54.54 0 0 1-.144.02 9.438 9.438 0 0 0-.264.02c-.073.005-.132.003-.132-.006.002-.032.197-.782.208-.791.005-.005.103-.016.215-.026.114-.009.208-.018.21-.02a.276.276 0 0 1 .064-.005c.037 0 .055.012.048.028Zm12.606-4.69c-.004.005-.14.017-.485.044-.112.01-.377.034-.537.05-.082.007-.16.014-.176.014-.016 0-.103.313-.224.803l-.337 1.352c-.141.567-.16.665-.12.659.013-.003.109-.01.216-.019.108-.007.24-.018.298-.023a7.56 7.56 0 0 1 .297-.023c.108-.006.227-.018.263-.022.04-.005.133-.012.213-.014.078-.002.15-.016.162-.03.016-.02.094-.306.128-.471l.058-.229.057-.229.217-.869c.114-.46.213-.853.217-.876.005-.023.016-.062.023-.087.014-.043.005-.046-.126-.039l-.144.01Z"/><path d="M13.644 3.692a58.907 58.907 0 0 0-.485.043c-.05.006-.162.017-.252.024-.411.034-.514.048-.526.062-.002.004-.043.16-.089.35-.082.331-.094.375-.114.462l-.3 1.207c-.16.64-.293 1.183-.297 1.201l-.055.229c-.028.108-.062.252-.083.32-.027.105-.478 1.917-.505 2.04-.018.085-.034.145-.259 1.037-.16.645-.22.92-.2.93.013.01.031.012.038.008.01-.005.091-.016.185-.023.094-.01.21-.019.261-.023.05-.005.174-.016.274-.023.101-.01.22-.018.264-.023l.274-.023c.108-.007.22-.018.252-.023.032-.004.155-.013.274-.022a5.65 5.65 0 0 0 .275-.021c.032-.007.144-.016.251-.025.419-.032.474-.035.584-.046.064-.007.192-.016.285-.023.183-.014.376-.034.38-.041a38.55 38.55 0 0 0 .25-1.018c.043-.18.08-.336.08-.345 0-.01-.07-.01-.154 0-.087.009-.238.023-.338.03-.206.015-.38.031-.55.047l-.274.023c-.633.053-.732.062-.748.074-.034.02-.016-.074.179-.845l.203-.818.398-1.602c.673-2.708.78-3.143.78-3.152 0-.007-.247 0-.258.01Zm-1.922.16a58.907 58.907 0 0 0-.485.043c-.093.013-.178.02-.514.05-.108.006-.21.017-.229.022a1.002 1.002 0 0 1-.105.007l-.071.002-.078.314c-.041.173-.078.327-.08.34-.002.014-.02.083-.039.149-.02.069-.04.149-.048.18-.004.033-.17.698-.366 1.48-.197.785-.357 1.435-.357 1.446 0 .012.04.016.087.014l.52-.046c.199-.016.382-.032.583-.045.224-.016.297-.028.315-.046.007-.007.078-.277.16-.602l.2-.805c.016-.073.608-2.461.615-2.484.007-.018-.09-.034-.108-.018Zm-2.15.184a2.545 2.545 0 0 1-.212.018c-.115.01-.234.018-.264.025-.03.005-.141.014-.249.023-.107.007-.24.018-.297.025l-.202.018a.488.488 0 0 0-.105.019c-.004.004-.077.29-.162.636-.087.345-.16.647-.167.672-.012.039 0 .041.158.025l.272-.023c.057-.004.18-.013.274-.022.344-.03.38-.033.55-.046.313-.023.262.052.445-.68.087-.352.16-.656.163-.672.004-.025-.02-.03-.099-.028l-.105.01Zm-.389 1.898a44.653 44.653 0 0 0-.508.043c-.05.005-.157.017-.24.021-.153.014-.466.04-.578.048a.193.193 0 0 0-.083.025 25.546 25.546 0 0 0-.322 1.252c0 .009.048.011.11.004.06-.004.18-.016.267-.023.09-.004.234-.016.32-.023.284-.022.385-.032.607-.045.119-.01.224-.023.23-.03.012-.011.197-.732.239-.92.004-.018.022-.098.043-.173.02-.078.037-.151.037-.163 0-.016-.106-.032-.122-.016Z"/><path d="M14.993 6.872a2.214 2.214 0 0 1-.199.018c-.292.023-.432.035-.571.048-.07.007-.218.016-.332.025-.112.007-.213.021-.222.028-.011.011-.236.892-.327 1.285l-.046.183-.048.206c-.007.032-.027.11-.046.176a3.5 3.5 0 0 0-.045.183 4.138 4.138 0 0 1-.058.225c-.066.24-.066.242.078.228.25-.023.375-.034.542-.045.094-.007.208-.019.252-.023.043-.005.183-.016.309-.023.126-.01.24-.025.254-.037.016-.011.032-.05.039-.084.006-.035.043-.19.084-.348.039-.158.085-.343.1-.412l.067-.263c.05-.187.336-1.347.336-1.36a.443.443 0 0 0-.167-.01Zm-6.292.894c-.003.003-.08.012-.174.019-.208.013-.52.04-.858.07-.087.01-.199.017-.245.019-.045.002-.091.009-.098.018a2.13 2.13 0 0 0-.091.316c-.005.018-.042.162-.08.32-.042.158-.076.302-.08.32l-.078.31c-.04.15-.076.296-.083.324-.016.075-.03.123-.055.206-.011.041-.018.075-.011.075.007 0 .002.019-.01.04a.51.51 0 0 0-.036.13l-.016.086.201-.016.27-.022c.04-.005.172-.014.298-.023.126-.01.245-.019.263-.023.02-.005.144-.014.274-.023.133-.01.245-.018.252-.023.007-.004.105-.014.217-.02.197-.017.261-.021.526-.046.115-.012.266-.025.572-.048l.263-.023.28-.025.173-.014.153-.61.163-.666c.004-.032.016-.071.02-.087.012-.032-.066-.03-.423.007-.057.006-.18.018-.274.025l-.252.02a8.069 8.069 0 0 1-.284.023c-.11.01-.22.018-.24.023-.02.002-.144.014-.276.023-.133.009-.248.02-.257.027-.027.016-.02-.055.019-.208.02-.075.039-.155.043-.174.005-.018.023-.098.044-.174.02-.077.036-.15.036-.162 0-.016-.13-.03-.146-.014Zm1.468 2.512a2.053 2.053 0 0 1-.224.023l-.286.023a43.65 43.65 0 0 0-.79.069c-.056.006-.18.015-.273.024-.094.007-.209.016-.252.021-.044.005-.167.014-.275.023-.107.01-.23.018-.274.023-.044.004-.162.014-.263.02-.1.01-.22.019-.263.026-.099.011-.302.03-.515.045-.087.007-.21.016-.274.023l-.286.025-.252.02c-.043.005-.162.015-.263.024-.1.007-.22.018-.263.023a8.068 8.068 0 0 1-.274.023 8.068 8.068 0 0 0-.275.022c-.043.005-.158.014-.252.023l-.274.023c-.057.007-.16.016-.229.023-.068.005-.203.016-.297.025-.094.01-.2.016-.233.016-.055.002-.067.016-.097.117a48.58 48.58 0 0 0-.31 1.256c0 .009.018.013.04.007.021-.007.122-.019.222-.026l.275-.023.274-.022c.101-.007.215-.019.252-.023.039-.005.162-.016.275-.023l.285-.023c.044-.005.163-.014.263-.023.101-.007.22-.018.264-.023.043-.004.162-.016.263-.023l.274-.02c.05-.005.174-.016.275-.023l.274-.025c.05-.007.174-.016.275-.025.1-.007.22-.016.263-.021l.555-.046.263-.023.273-.023c.077-.006.196-.018.263-.022.066-.007.187-.016.27-.023.244-.019.706-.06.812-.069l.286-.023c.228-.018.235-.018.242-.064.002-.016.048-.203.1-.416l.106-.43c.005-.02.014-.062.023-.092.007-.027.016-.075.023-.107.007-.032.02-.09.03-.126.04-.137.04-.165.01-.165a.097.097 0 0 0-.036.005Zm-7.477.638a1.84 1.84 0 0 1-.227.025 11.57 11.57 0 0 0-.503.044l-.309.025a6.347 6.347 0 0 0-.251.023l-.24.023c-.083.007-.19.016-.24.023-.15.013-.476.04-.534.04-.06.003-.039-.059-.233.737l-.151.613c-.011.037-.002.041.076.03.077-.011.221-.023.51-.046.281-.023.478-.04.558-.05.05-.005.169-.016.263-.02.096-.008.21-.017.254-.024.043-.004.153-.016.24-.022l.263-.023c.057-.007.176-.016.263-.025.09-.007.162-.016.167-.021.007-.005.133-.492.153-.583l.069-.275a12.808 12.808 0 0 0 .091-.373c.042-.14.046-.13-.087-.13a.591.591 0 0 0-.132.01Z"/></g></svg>
