<svg width="52" height="64" xmlns="http://www.w3.org/2000/svg"><path d="M27 15c1.42 0 2.942-.435 4.565-1.305 1.623-.87 2.971-1.97 4.044-3.297.985-1.21 1.797-2.61 2.434-4.203.638-1.593.957-3.216.957-4.868 0-.501-.043-.944-.13-1.327-1.595.059-3.269.553-5.022 1.482-1.754.93-3.21 2.087-4.37 3.474-.898 1.032-1.703 2.338-2.413 3.916A11.794 11.794 0 0026 13.762c0 .442.043.825.13 1.15.261.059.551.088.87.088zM16.607 64c1.308 0 2.448-.22 3.421-.661.974-.44 2.006-.881 3.095-1.322 1.09-.44 2.448-.66 4.076-.66 1.656 0 2.985.212 3.988.638 1.002.426 1.969.86 2.898 1.3.93.44 2.122.66 3.575.66 2.18 0 4.046-.836 5.6-2.51 1.555-1.675 3.001-3.497 4.338-5.465 1.54-2.262 2.651-4.333 3.334-6.213.683-1.88 1.039-2.864 1.068-2.952-.087-.03-.56-.28-1.417-.75s-1.845-1.218-2.964-2.247c-1.118-1.028-2.092-2.372-2.92-4.032-.828-1.66-1.242-3.679-1.242-6.058 0-2.086.327-3.886.98-5.398.654-1.513 1.424-2.77 2.31-3.768.887-.999 1.686-1.755 2.398-2.27.712-.513 1.111-.8 1.199-.859-1.424-2.085-3.008-3.576-4.751-4.472-1.744-.896-3.35-1.447-4.817-1.653C39.31 15.103 38.27 15 37.66 15c-1.599 0-3.095.25-4.49.75-1.395.499-2.659.99-3.792 1.475-1.133.485-2.121.727-2.964.727-.9 0-1.881-.235-2.942-.705a55.333 55.333 0 00-3.465-1.388 11.494 11.494 0 00-3.967-.683c-2.673 0-5.23.727-7.671 2.181-2.441 1.455-4.446 3.606-6.015 6.456C.784 26.663 0 30.188 0 34.388c0 3.908.647 7.785 1.94 11.634 1.293 3.848 2.87 7.109 4.729 9.782 1.598 2.262 3.153 4.193 4.664 5.794C12.843 63.2 14.602 64 16.607 64z" fill="#7b94ce" fill-rule="nonzero"/></svg>
