<svg width="1032" height="880" xmlns="http://www.w3.org/2000/svg">
  <g fill="#000" fill-rule="evenodd" fill-opacity=".169" opacity=".471">
    <path d="M305.632-9.079L361-14l-35.746 141.552L270 132 305.632-9.079zm151.604-13.113L512-27 486.475 74.792 432 79l25.236-101.192zM427.412 99.413L482 95l-22.608 89.69L405 189l22.412-89.587zM380.374-16.06L435.74-21l-58.013 231.592L454 204.137l-12.114 49.766L310 265l70.374-281.06zM230.156-4.078L286-9l-12.296 49.32L218 45l12.156-49.078zM213.68 65.649L269 61l-11.387 46.637L202 112l11.679-46.351zM77.757 9.8l12.391-50.069L146.188-45 133.884 4.985 210-1.39l-53.012 212.235L-52 228 1.099 16.232 77.757 9.8zm-40.32 161.5L45 141l-20.397 1.761L17 173l20.437-1.7zM121 134l-20.487 1.779L93 166l20.456-1.71L121 134zM44.981 60.743L37 92l20.057-1.665L65 59l-20.019 1.743zm75.87-5.962L113 86l20.11-1.685L141 53l-20.15 1.78zM-69 298l12.192-49.605L38 240l-12.547 49.755L-69 298zm114-11l12.506-49.243L302 217l-12.161 49.47L45 287zm200.721-133.215L320 147.409l-12.579 50.454-74.232 6.339-.024.092L177 209l19.4-77.414L252.378 127l-6.656 26.785zM886.632-228.079L942-233 906.254-91.448 851-87l35.632-141.079zm151.604-13.113L1093-246l-25.525 101.792L1013-140l25.236-101.192zm-29.824 121.605L1063-124l-22.608 89.69L986-30l22.412-89.587zM961.374-235.06l55.365-4.94L958.726-8.408 1035-14.863l-12.114 49.766L891 46l70.374-281.06zm-150.218 11.982L867-228l-12.296 49.32L799-174l12.156-49.078zm-16.477 69.727L850-158l-11.387 46.637L783-107l11.679-46.351zM658.757-209.2l12.391-50.069 56.04-4.732-12.303 49.985L791-220.39 737.988-8.154 529 9l53.099-211.768 76.658-6.431zm-40.32 161.5L626-78l-20.397 1.761L598-46l20.437-1.7zM702-85l-20.487 1.779L674-53l20.456-1.71L702-85zm-76.019-73.257L618-127l20.057-1.665L646-160l-20.019 1.743zm75.87-5.962L694-133l20.11-1.685L722-166l-20.15 1.78zM512 79l12.192-49.605L619 21l-12.547 49.755L512 79zm114-11l12.506-49.243L883-2l-12.161 49.47L626 68zM826.721-65.215L901-71.591l-12.579 50.454-74.232 6.339-.024.092L758-10l19.4-77.414L833.378-92l-6.656 26.785z"/>
    <path d="M103.632 302.921L159 298l-35.746 141.552L68 444l35.632-141.079zm151.604-13.113L310 285l-25.525 101.792L230 391l25.236-101.192zm-29.824 121.605L280 407l-22.608 89.69L203 501l22.412-89.587zM178.374 295.94L233.74 291l-58.013 231.592L252 516.137l-12.114 49.766L108 577l70.374-281.06zM28.156 307.922L84 303l-12.296 49.32L16 357l12.156-49.078zM11.68 377.649L67 373l-11.387 46.637L0 424l11.679-46.351zM-124.243 321.8l12.391-50.069 56.04-4.732-12.303 49.985L8 310.61l-53.012 212.235L-254 540l53.099-211.768 76.658-6.431zm-40.32 161.5L-157 453l-20.397 1.761L-185 485l20.437-1.7zM-81 446l-20.487 1.779L-109 478l20.456-1.71L-81 446zm-76.019-73.257L-165 404l20.057-1.665L-137 371l-20.019 1.743zm75.87-5.962L-89 398l20.11-1.685L-61 365l-20.15 1.78zM-271 610l12.192-49.605L-164 552l-12.547 49.755L-271 610zm114-11l12.506-49.243L100 529l-12.161 49.47L-157 599zM43.721 465.785L118 459.409l-12.579 50.454-74.232 6.339-.024.092L-25 521l19.4-77.414L50.378 439l-6.656 26.785z"/>
    <path d="M-103.368 613.921L-48 609l-35.746 141.552L-139 755l35.632-141.079zm151.604-13.113L103 596 77.475 697.792 23 702l25.236-101.192zM18.412 722.413L73 718l-22.608 89.69L-4 812l22.412-89.587zM-28.626 606.94L26.74 602l-58.013 231.592L45 827.137l-12.114 49.766L-99 888l70.374-281.06zm-150.218 11.982L-123 614l-12.296 49.32L-191 668l12.156-49.078zm-16.477 69.727L-140 684l-11.387 46.637L-207 735l11.679-46.351zM-331.243 632.8l12.391-50.069 56.04-4.732-12.303 49.985L-199 621.61l-53.012 212.235L-461 851l53.099-211.768 76.658-6.431zm-40.32 161.5L-364 764l-20.397 1.761L-392 796l20.437-1.7zM-288 757l-20.487 1.779L-316 789l20.456-1.71L-288 757zm-76.019-73.257L-372 715l20.057-1.665L-344 682l-20.019 1.743zm75.87-5.962L-296 709l20.11-1.685L-268 676l-20.15 1.78zM-478 921l12.192-49.605L-371 863l-12.547 49.755L-478 921zm114-11l12.506-49.243L-107 840l-12.161 49.47L-364 910zm200.721-133.215L-89 770.409l-12.579 50.454-74.232 6.339-.024.092L-232 832l19.4-77.414 55.977-4.586-6.656 26.785z"/>
  </g>
</svg>
