<svg width="1616" height="1185" xmlns="http://www.w3.org/2000/svg"><g fill="#000" fill-rule="evenodd"><path d="M327.632 2.921L383-2l-35.746 141.552L292 144 327.632 2.921zm151.604-13.113L534-15 508.475 86.792 454 91l25.236-101.192zm-29.824 121.605L504 107l-22.608 89.69L427 201l22.412-89.587zM402.374-4.06L457.74-9l-58.013 231.592L476 216.137l-12.114 49.766L332 277 402.374-4.06zM252.156 7.922L308 3l-12.296 49.32L240 57l12.156-49.078zM235.68 77.649L291 73l-11.387 46.637L224 124l11.679-46.351h.001zM99.757 21.8l12.391-50.069L168.188-33l-12.304 49.985L232 10.61l-53.012 212.235L-30 240 23.099 28.232 99.757 21.8zm-40.32 161.5L67 153l-20.397 1.761L39 185l20.437-1.7zM143 146l-20.487 1.779L115 178l20.456-1.71L143 146zM66.981 72.743L59 104l20.057-1.665L87 71l-20.019 1.743zm75.87-5.962L135 98l20.11-1.685L163 65l-20.15 1.78.001.001zM-47 310l12.192-49.605L60 252l-12.547 49.755L-47 310zm114-11l12.506-49.243L324 229l-12.161 49.47L67 299zm200.721-133.215L342 159.409l-12.579 50.454-74.232 6.339-.024.092L199 221l19.4-77.414L274.378 139l-6.656 26.785h-.001zm640.911-381.864L964-221 928.254-79.448 873-75l35.632-141.079zm151.604-13.113L1115-234l-25.525 101.792L1035-128l25.236-101.192zm-29.824 121.605L1085-112l-22.608 89.69L1008-18l22.412-89.587zM983.374-223.06l55.365-4.94L980.726 3.592 1057-2.863l-12.114 49.766L913 58l70.374-281.06zm-150.218 11.982L889-216l-12.296 49.32L821-162l12.156-49.078zm-16.477 69.727L872-146l-11.387 46.637L805-95l11.679-46.351zM680.757-197.2l12.391-50.069 56.04-4.732-12.303 49.985L813-208.39 759.988 3.846 551 21l53.099-211.768 76.658-6.431v-.001zm-40.32 161.5L648-66l-20.397 1.761L620-34l20.437-1.7zM724-73l-20.487 1.779L696-41l20.456-1.71L724-73zm-76.019-73.257L640-115l20.057-1.665L668-148l-20.019 1.743zm75.87-5.962L716-121l20.11-1.685L744-154l-20.15 1.78.001.001zM534 91l12.192-49.605L641 33l-12.547 49.755L534 91zm114-11l12.506-49.243L905 10l-12.161 49.47L648 80zM848.721-53.215L923-59.591 910.421-9.137l-74.232 6.339-.024.092L780 2l19.4-77.414L855.378-80l-6.656 26.785h-.001z"/><path d="M100.632 314.921L156 310l-35.746 141.552L65 456l35.632-141.079zm151.604-13.113L307 297l-25.525 101.792L227 403l25.236-101.192zm-29.824 121.605L277 419l-22.608 89.69L200 513l22.412-89.587zM175.374 307.94L230.74 303l-58.013 231.592L249 528.137l-12.114 49.766L105 589l70.374-281.06zM25.156 319.922L81 315l-12.296 49.32L13 369l12.156-49.078zM8.68 389.649L64 385l-11.387 46.637L-3 436l11.679-46.351h.001zM-127.243 333.8l12.391-50.069 56.04-4.732-12.303 49.985L5 322.61l-53.012 212.235L-257 552l53.099-211.768 76.658-6.431v-.001zm-40.32 161.5L-160 465l-20.397 1.761L-188 497l20.437-1.7zM-84 458l-20.487 1.779L-112 490l20.456-1.71L-84 458zm-76.019-73.257L-168 416l20.057-1.665L-140 383l-20.019 1.743zm75.87-5.962L-92 410l20.11-1.685L-64 377l-20.15 1.78.001.001zM-274 622l12.192-49.605L-167 564l-12.547 49.755L-274 622zm114-11l12.506-49.243L97 541l-12.161 49.47L-160 611zM40.721 477.785L115 471.409l-12.579 50.454-74.232 6.339-.024.092L-28 533l19.4-77.414L47.378 451l-6.656 26.785h-.001z"/><path d="M-126.368 625.921L-71 621l-35.746 141.552L-162 767l35.632-141.079zm151.604-13.113L80 608 54.475 709.792 0 714l25.236-101.192zM-4.588 734.413L50 730l-22.608 89.69L-27 824l22.412-89.587zM-51.626 618.94L3.74 614l-58.013 231.592L22 839.137 9.886 888.903-122 900l70.374-281.06zm-150.218 11.982L-146 626l-12.296 49.32L-214 680l12.156-49.078zm-16.477 69.727L-163 696l-11.387 46.637L-230 747l11.679-46.351zM-354.243 644.8l12.391-50.069 56.04-4.732-12.303 49.985L-222 633.61l-53.012 212.235L-484 863l53.099-211.768 76.658-6.431v-.001zm-40.32 161.5L-387 776l-20.397 1.761L-415 808l20.437-1.7zM-311 769l-20.487 1.779L-339 801l20.456-1.71L-311 769zm-76.019-73.257L-395 727l20.057-1.665L-367 694l-20.019 1.743zm75.87-5.962L-319 721l20.11-1.685L-291 688l-20.15 1.78.001.001zM-501 933l12.192-49.605L-394 875l-12.547 49.755L-501 933zm114-11l12.506-49.243L-130 852l-12.161 49.47L-387 922zm200.721-133.215l74.279-6.376-12.579 50.454-74.232 6.339-.024.092L-255 844l19.4-77.414 55.977-4.586-6.656 26.785z"/></g></svg>
