<svg width="36" height="21" xmlns="http://www.w3.org/2000/svg"><path d="M22.97 2.17l3.38-.3-2.18 8.7-3.38.27 2.18-8.67zm9.3-.8l3.35-.29-1.56 6.25-3.34.26 1.55-6.21v-.01zm-1.86 7.44l3.35-.28-1.39 5.53-3.34.27 1.38-5.52zm-2.85-7.02l3.4-.3-3.56 14.19 4.67-.4-.74 3.05-8.08.68 4.31-17.22zm-9.21.77l3.44-.3-.76 3-3.43.3.75-3zm-1.05 4.2l3.43-.3-.7 2.86-3.46.26.73-2.83v.01zM9 3.36L9.76.29 13.2 0l-.75 3.06 4.65-.4-3.24 12.99L1.08 16.7 4.33 3.74l4.68-.39-.01.01zm-2.5 9.87l.46-1.81-1.22.1-.46 1.81 1.23-.1H6.5zm5.14-2.22l-1.25.11-.45 1.83 1.24-.1.46-1.84zM7.01 6.46l-.48 1.93 1.22-.1.48-1.93-1.22.1zm4.66-.4L11.17 8l1.26-.1.49-1.96-1.25.11v.01zM0 21l.75-3.04 5.82-.51-.77 3.05L0 21zm7.06-.62l.76-3.03 14.96-1.27-.74 3.04-14.98 1.26zm12.25-8.23l4.55-.4-.77 3.08-4.55.4-3.45.28 1.2-4.72 3.43-.28-.41 1.64z" fill="#FFD280" fill-rule="nonzero"/></svg>