<svg width="64" height="64" xmlns="http://www.w3.org/2000/svg"><path d="M39.201 0s14.51 10.014 18.585 24.619c4.073 14.605.8 20.329.8 20.329s4.661 6.016 5.235 11.55C64.393 62.035 63.41 64 63.41 64s-2.863-6.357-8.823-6.357c-5.96 0-7.952 5.987-19.025 5.987-11.07 0-15.99-3.504-22.734-7.876C6.083 51.379 0 41.109 0 41.109s11.755 9.05 22.073 9.05 14.355-3.963 14.355-3.963-5.2-4.295-12.79-12.936C16.046 24.618 6.084 9.642 6.084 9.642S16.1 18.734 19.87 22.021c3.768 3.287 12.297 9.624 12.297 9.624S24.192 21.566 22.031 18.48C19.87 15.393 13.8 6.17 13.8 6.17S24.88 17.463 30.82 22.858c5.938 5.395 14.49 11.518 14.49 11.518s2.404-6.961 1.334-15.896C45.574 9.545 39.201 0 39.201 0z" fill="orange" fill-rule="nonzero"/></svg>
