<?xml version="1.0" standalone="no"?>
<!DOCTYPE svg PUBLIC "-//W3C//DTD SVG 1.1//EN" "http://www.w3.org/Graphics/SVG/1.1/DTD/svg11.dtd">
<svg viewBox="0 0 580 180" preserveAspectRatio="xMinYMin meet" version="1.1" xmlns="http://www.w3.org/2000/svg"><path d="M30.000,160.000L80.000,147.705L130.000,132.951L180.000,120.656L230.000,105.902L280.000,93.607L330.000,78.852L380.000,66.557L430.000,51.803L480.000,39.508L530.000,24.754L580.000,10.000V160H30Z" stroke="#7760c3" fill="rgba(211,107,70,0.325)" stroke-width="0"></path><path d="M30.000,118.197L80.000,113.279L130.000,108.361L180.000,105.902L230.000,103.443L280.000,98.525L330.000,96.066L380.000,93.607L430.000,88.689L480.000,86.230L530.000,83.770L580.000,78.852V160H30Z" fill="rgba(119,96,195,0.3125)" stroke-width="0"></path><g text-anchor="end" font-family="-apple-system, Verdana" font-size="9px" fill="#888888"><text x="25.00" y="126.50">0.5K</text><text x="25.00" y="89.00">1.1K</text><text x="25.00" y="51.50">1.6K</text><text x="25.00" y="14.00">$2.2K</text></g><g fill="#888888" text-anchor="middle" font-family="-apple-system, Verdana" font-size="10px"><text x="42" y="174.00">Feb</text><text x="112.33" y="174.00">Apr</text><text x="193.81" y="174.00">May</text><text x="275.29" y="174.00">Jul</text><text x="356.77" y="174.00">Sep</text><text x="438.26" y="174.00">Nov</text><text x="519.74" y="174.00">Jan</text></g></svg>
