<?xml version="1.0" standalone="no"?>
<!DOCTYPE svg PUBLIC "-//W3C//DTD SVG 1.1//EN" "http://www.w3.org/Graphics/SVG/1.1/DTD/svg11.dtd">
<svg viewBox="0 0 580 180" preserveAspectRatio="xMinYMin meet" version="1.1" xmlns="http://www.w3.org/2000/svg"><path d="M30.000,54.426L75.833,20.000L121.667,137.049L167.500,143.934L213.333,139.344L259.167,150.820L305.000,130.164L350.833,146.230L396.667,150.820L442.500,153.115L488.333,153.115L534.167,150.820L580.000,150.820V160H30Z" stroke="#7760c3" fill="rgba(119,96,195,0.3125)" stroke-width="0" stroke-opacity="1"></path><path d="M30,20V160H580V20" stroke-width="0" stroke="#AAAAAA" fill="transparent"></path><g xmlns="http://www.w3.org/2000/svg" font-size="10px" fill="#888888" text-anchor="end" font-family="-apple-system, Verdana"><text x="25" y="144.00">1K</text><text x="25" y="124.00">2K</text><text x="25" y="104.00">3K</text><text x="25" y="84.00">4K</text><text x="25" y="64.00">5K</text><text x="25" y="44.00">6K</text><text x="25" y="24.00">7K</text></g><g text-anchor="middle" font-family="-apple-system, Verdana" font-size="10px" fill="#888888"><text x="52" y="175.00">Feb 1</text><text x="110.63" y="175.00">Feb 14</text><text x="191.01" y="175.00">Feb 27</text><text x="271.38" y="175.00">Mar 11</text><text x="351.76" y="175.00">Mar 24</text><text x="432.13" y="175.00">Apr 6</text><text x="512.51" y="175.00">Apr 19</text></g></svg>
