<svg version="1" xmlns="http://www.w3.org/2000/svg" width="933.333" height="933.333" viewBox="0 0 700.000000 700.000000"><path d="M253.7 131.7c-.1 0-4.2.4-9.2.8-4.9.3-10.6.8-12.5 1-1.9.2-7.1.6-11.5 1-4.4.3-10 .8-12.5 1-2.5.3-7 .7-10 1-3 .3-5.7.9-6.1 1.3-.4.5-10.9 42-11.4 45.2 0 .3-.9 3.7-1.9 7.6l-1.8 7.2-11.1.7c-6.2.5-12.1.9-13.2 1-1.1.1-6 .6-11 .9-4.9.4-10.3.9-12 1.1-1.6.2-6.8.7-11.5 1-4.7.4-10.1.8-12 1-1.9.2-7.4.6-12.2 1-5.7.5-8.8 1.2-9.2 2-.3 1-14.6 57.9-17.2 68.7-.2 1-.6 2.6-.8 3.5-.2 1-4.8 19.1-10.1 40.3-10 39.9-10.3 40.9-11.1 44.9-.3 1.4-.7 2.8-.9 3.1-.2.4-.7 2-.9 3.6-.3 1.6-3.8 15.5-7.7 30.9-3.8 15.4-7.2 28.9-7.4 29.9-.7 3-6.5 26.9-7.1 28.9-.5 1.5-.1 1.7 2.3 1.3 1.5-.3 6.4-.8 10.8-1.1 4.4-.3 9.6-.7 11.5-1 1.9-.2 7.6-.7 12.5-1 5-.4 10.6-.8 12.5-1 1.9-.2 7.3-.6 12-1 4.7-.3 10.3-.8 12.5-1 11.1-1 23-2 35.5-3 10.3-.8 16.4-1.3 23.5-1.9 3.3-.3 9.4-.8 13.5-1.1 4.1-.4 9.5-.8 12-1 2.5-.3 7.7-.7 11.5-1 3.9-.3 9.5-.7 12.5-1 3-.2 8.7-.7 12.5-1 3.9-.3 9-.8 11.5-1 2.5-.3 7.9-.7 12-1 4.1-.3 9.5-.7 12-1 2.5-.2 7.9-.7 12-1.1 4.1-.3 7.8-1.1 8.2-1.8.7-1 3.1-11.3 2.8-11.8-.1-.2.3-1.5.9-3.1.6-1.5 1.3-3.8 1.5-5 .2-1.2 3.7-15 7.6-30.7 3.9-15.7 7.3-29.2 7.5-30 .2-.8 2.6-10.7 5.4-22 2.8-11.3 5.3-21.4 5.5-22.5.4-1.8 17.7-71.4 19.3-77.5.3-1.4.7-3.1.9-3.7.1-.7 2.8-11.5 5.9-24 3.1-12.6 5.8-23.3 5.8-23.8.1-.6-1.4-1-3.3-.9-5.3.1-23.4 1.4-26.1 1.9-1.3.2-6.2.6-10.9 1-4.7.3-10.3.8-12.5 1-2.2.2-7.1.7-11 1-6.9.5-16.4 1.3-23.1 2-2.3.2-3.4-.1-3.4-1 0-.8 1.8-8.9 4.1-18.2 2.3-9.2 4.3-17.5 4.5-18.3.1-.8 1.4-6.1 2.8-11.8 1.5-5.7 2.6-10.5 2.6-10.7 0-.3-5-.2-5.3.2zm-.2 118.5c-.4 1.1-6.8 26.8-8 32.1-1.1 4.7-1.6 5.3-4.7 5.5-9.1.5-18.3 1.4-19 1.8-2 1.2-1.4-3 2.7-19.7 2.5-10.1 4.7-18.5 5-18.7.2-.2 3.6-.6 7.6-.8 4.1-.3 7.5-.6 7.6-.8.2-.2 2.3-.4 4.8-.4 3.2-.2 4.3.1 4 1zm-96.3 25c-2.4 10.1-4.8 18.6-5.1 19-.8.9-4.9 1.5-15.2 2.3l-8.5.6 4.5-18.5c2.6-10.1 4.9-18.7 5.2-19 .3-.4 4.4-.9 9-1.2 4.6-.3 8.5-.7 8.6-.8.1-.1 1.5-.3 3.1-.4l3-.2-4.6 18.2zm70.7 76.7c-.6 1.4-1 2.8-.9 3.1.1.3-1.5 7.3-3.6 15.5-3.3 13.5-3.9 15.1-5.8 15.2-1.1 0-5.9.3-10.6.7-9.9.9-9.2.9-10.6.7-1.1-.1 6.8-33.7 8.3-35.2.4-.4 4.9-1.1 9.8-1.4 5-.4 9.1-.8 9.2-.9.1 0 1.3-.2 2.7-.2 2.3-.2 2.4 0 1.5 2.5zm-91.3 6.7c-.6 1.7-2.4 8.2-3 11.4-1.3 6.2-5.5 22.2-6 22.7-.3.3-3.1.7-6.3.9-3.2.2-8.4.6-11.5.9-3.2.2-5.8.1-5.8-.3.1-1.4 8.6-34.2 9.1-34.6.2-.2 4.5-.7 9.4-1.1 5-.4 9.1-.8 9.2-.9.1-.1 1.4-.2 2.8-.2 1.6 0 2.4.5 2.1 1.2zM687.7 153.6c-.2.2-6.1.7-21.2 1.9-4.9.4-16.5 1.5-23.5 2.2-3.6.3-7 .6-7.7.6-.7 0-4.5 13.7-9.8 35.1-4.8 19.3-11.4 45.9-14.7 59.1-6.2 24.8-7 29.1-5.3 28.8.6-.1 4.8-.4 9.5-.8 4.7-.3 10.5-.8 13-1 2.5-.3 8.3-.7 13-1 4.7-.3 9.9-.8 11.5-1 1.7-.2 5.8-.5 9.3-.6 3.4-.1 6.6-.7 7.1-1.3.7-.9 4.1-13.4 5.6-20.6.2-.8 1.3-5.3 2.5-10s2.3-9.2 2.5-10c.2-.8 4.5-17.9 9.5-38s9.3-37.3 9.5-38.3c.2-1 .7-2.7 1-3.8.6-1.9.2-2-5.5-1.7-3.4.2-6.2.4-6.3.4z"/><path d="M596.7 161.6c-.1.1-4 .5-8.7.8-4.7.4-10.3.9-12.5 1.1-2.2.2-7.1.7-11 1-18 1.5-22.5 2.1-23 2.7-.1.2-1.9 7-3.9 15.3-3.6 14.5-4.1 16.4-5 20.2-.2 1-6.1 24.7-13.1 52.8-7 28-12.8 51.7-13 52.5-.2.8-1.3 5.3-2.4 10-1.2 4.7-2.7 11-3.6 14-1.2 4.6-20.9 83.8-22.1 89.2-.8 3.7-1.5 6.3-11.3 45.3-7 28.2-9.6 40.2-8.8 40.7.6.4 1.4.5 1.7.3.4-.2 4-.7 8.1-1 4.1-.4 9.2-.8 11.4-1 2.2-.2 7.6-.7 12-1 4.4-.4 9.6-.8 11.5-1 1.9-.2 7.3-.6 12-1 4.7-.3 9.6-.8 11-1 1.4-.2 6.8-.6 12-1 5.2-.3 10.6-.7 12-.9 1.4-.3 6.3-.7 11-1.1 18.3-1.4 20.7-1.5 25.5-2 2.8-.3 8.4-.7 12.5-1 8-.6 16.4-1.5 16.6-1.8.2-.3 6.5-26 7-28.2.2-1.1 1.9-8.4 3.9-16.3 1.9-7.9 3.5-14.7 3.5-15.1 0-.4-3-.4-6.7 0-3.8.4-10.4 1-14.8 1.3-9 .7-16.6 1.4-24 2.1-2.7.2-8.1.7-12 1-27.7 2.3-32 2.7-32.7 3.2-1.5.9-.7-3.2 7.8-36.9 4.7-18.9 8.7-35 8.9-35.8.2-.8 8-32.3 17.4-70C603.3 180.6 608 161.6 608 161.2c0-.3-10.8 0-11.3.4zM512.7 168.6c-.1.1-4 .5-8.7.8-4.7.4-10.3.9-12.5 1.1-4.1.5-7.8.8-22.5 2.1-4.7.3-9.2.8-10 1-.8.1-2.9.3-4.6.3l-3.1.1-3.4 13.7c-1.8 7.6-3.4 14.3-3.5 14.9-.1.6-.9 3.6-1.7 6.5-.9 3-1.8 6.5-2.1 7.9-.2 1.4-7.4 30.5-16 64.7C416 316 409 344.4 409 344.9s1.7.7 3.8.6c3.7-.3 13.2-1.2 22.7-2 8.7-.7 16.7-1.4 25.5-2 9.8-.7 13-1.2 13.8-2 .3-.3 3.4-12.1 7-26.3 8.4-34 8.3-33.5 8.7-35.2.7-3.2 26.6-107.6 26.9-108.6.3-.8-3.9-1.5-4.7-.8zM418.7 176.6c-.1.1-4.3.5-9.3.8-5 .4-10.2.8-11.5 1.1-1.3.2-6.2.6-10.9 1-4.7.3-10.5.8-13 1.1-2.5.2-6.5.6-8.8.8-2.4.3-4.5.6-4.6.8-.2.2-3.4 12.7-7.1 27.8-3.8 15.1-7 28.3-7.3 29.4-.5 1.7 0 1.8 6.9 1.1 4.1-.3 9.4-.8 11.9-1 2.5-.2 7.9-.6 12-1 15-1.3 16.6-1.4 24-2 13.7-1 11.5 2.3 19.5-29.7 3.8-15.4 7-28.7 7.1-29.4.2-1.1-.9-1.3-4.3-1.2-2.4.2-4.5.4-4.6.4zM401.7 259.6c-.1.1-4.2.5-9.2.8-4.9.4-10.8.9-13 1.1-2.2.2-6.9.7-10.5.9-6.7.6-20.4 1.7-25.3 2.1-1.6.2-3.2.7-3.6 1.1-.7.8-14.1 52.8-14.1 54.7 0 .4 2.1.5 4.8.2 2.6-.2 7.9-.7 11.7-1 3.9-.2 10.2-.7 14-1 12.4-1 16.8-1.4 26.5-2 5.2-.4 9.8-1 10.1-1.3.5-.5 8.6-32 10.4-40.2.2-.8 1-4.3 1.9-7.6.9-3.4 1.6-6.6 1.6-7.1 0-.7-4.6-1.4-5.3-.7z"/><path d="M655.7 300.6c-.1.1-4 .5-8.7.8-12.8 1-18.9 1.5-25 2.1-3 .3-9.5.7-14.5 1.1-4.9.3-9.3.9-9.7 1.2-.5.5-10.3 39-14.3 56.2l-2 8c-.9 3.6-1.8 7.6-2.1 9-.3 1.4-1.2 4.8-2 7.7-.8 2.9-1.7 6.5-2 8-.3 1.5-1.4 5.9-2.5 9.8-2.9 10.5-2.9 10.6 3.4 10 10.9-1 16.4-1.5 23.7-2 4.1-.3 9.1-.8 11-1 1.9-.2 8-.7 13.5-1 5.5-.4 10.5-1.1 11.1-1.6.7-.5 1.4-2.2 1.7-3.7.3-1.5 1.9-8.3 3.7-15.2 1.7-6.9 3.7-15 4.4-18 .7-3 2-8.2 2.9-11.5 2.2-8.2 14.7-58.9 14.7-59.5 0-.5-6.8-.8-7.3-.4zM380.6 339.7c-.1.1-3.5.5-7.6.8-9.1.6-22.7 1.8-37.5 3.1-3.8.4-8.7.7-10.7.8-2 .1-4 .4-4.3.8-.5.5-2.8 8.4-4 13.8-.2.8-1.8 7.1-3.5 14-1.8 6.9-3.3 13.2-3.5 14-.2.8-1.7 6.9-3.4 13.5s-3.3 13-3.6 14.2c-.7 3.3-1.3 5.4-2.4 9-.5 1.8-.8 3.3-.5 3.3.3 0 .1.8-.4 1.7-.5 1-1.3 3.5-1.6 5.7l-.7 3.8 8.8-.7c4.8-.4 10.2-.9 11.8-1 1.7-.2 7.5-.6 13-1s10.7-.8 11.5-1c.9-.2 6.3-.6 12-1 5.8-.4 10.7-.8 11-1 .3-.2 4.6-.6 9.5-.9 8.6-.7 11.4-.9 23-2 5-.5 11.6-1.1 25-2.1 3.9-.3 9-.8 11.5-1 2.5-.2 8-.7 12.2-1.1l7.6-.6 6.7-26.7c3.6-14.6 6.8-27.7 7.1-29.1.2-1.4.7-3.1.9-3.8.5-1.4-2.9-1.3-18.5.3-2.5.3-7.9.8-12 1.1-4.1.3-9.1.7-11 .9-1.9.2-7.5.7-12.4 1-4.8.4-9.6.8-10.5 1-.9.1-6.3.6-12.1 1s-10.8.9-11.2 1.2c-1.2.7-.9-2.4.8-9.1.9-3.3 1.7-6.8 1.9-7.6.2-.8 1-4.3 1.9-7.6.9-3.4 1.6-6.6 1.6-7.1 0-.7-5.7-1.3-6.4-.6zM444.8 449.5c-.2.2-4.6.6-9.8 1-5.2.4-10.8.9-12.5 1-1.6.2-6.4.6-10.5.9-8.7.7-17.6 1.5-24 2.1-2.5.3-7.9.7-12 1.1-4.1.3-9.1.7-11 .9-1.9.2-7.3.6-12 1s-10.1.8-12 1c-1.9.2-7.1.6-11.5.9-4.4.4-9.6.8-11.5 1.1-4.3.5-13.2 1.3-22.5 2-3.8.3-9.2.7-12 1-2.7.2-8.4.7-12.5 1.1-4.1.3-9.1.7-11 .9-1.9.2-7.1.6-11.5 1-4.4.3-9.6.8-11.5 1-1.9.2-7.3.7-12 1-4.7.3-10.1.8-12 1-1.9.2-6.9.6-11 1-4.1.3-9.5.8-12 1-2.5.3-7 .7-10 1-3 .2-8.9.7-13 1.1-4.1.4-8.7.7-10.2.7-2.4.1-2.9.7-4.2 5.1-2 7.1-13.6 53.8-13.6 54.9 0 .4.8.6 1.8.3.9-.3 5.3-.8 9.7-1.1 4.4-.4 9.8-.8 12-1 2.2-.2 7.6-.6 12-1 4.4-.3 9.4-.8 11-1 1.7-.2 7.1-.7 12-1 5-.4 10.6-.9 12.5-1 1.9-.2 7.1-.6 11.5-1 4.4-.3 9.6-.8 11.5-1 1.9-.2 7.1-.7 11.5-1 4.4-.3 9.8-.7 12-.9 2.2-.2 7.6-.7 12-1 4.4-.4 9.8-.9 12-1.1 2.2-.3 7.6-.7 12-1.1 4.4-.3 9.6-.7 11.5-.9 3.2-.3 9.7-.8 24.3-2 3.1-.3 8.3-.7 11.5-1 3.1-.3 8.5-.7 11.9-1 3.4-.3 8.6-.8 11.5-1 2.9-.3 8.2-.7 11.8-1 10.7-.8 30.9-2.6 35.5-3 1.7-.2 7.3-.6 12.5-1 10-.8 10.3-.8 10.6-2.8.1-.7 2.1-8.9 4.4-18.2 2.3-9.4 4.3-17.8 4.6-18.8.2-.9.6-2.7 1-4 .3-1.2.7-3.3 1-4.7.3-1.4.9-3.9 1.3-5.5 1.8-6 1.8-7.2.5-7.2-.8 0-1.5.1-1.6.2zM117.9 477.4c-.2.2-4.7.7-9.9 1.1-9.9.7-11.2.8-22 1.9-3.6.3-9.6.8-13.5 1.1-3.8.3-8.8.7-11 1-2.2.2-6.9.7-10.5 1-3.6.3-8.3.7-10.5 1-6.5.6-20.8 1.8-23.3 1.8-2.6.1-1.7-2.6-10.2 32.2C3.6 532.2.6 544.3.4 545.3c-.5 1.6-.1 1.8 3.3 1.3s9.7-1 22.3-2c12.3-1 20.9-1.8 24.4-2.2 2.2-.2 7.4-.7 11.5-.9 4.2-.3 9.2-.7 11.1-1 1.9-.2 6.7-.7 10.5-1 3.9-.3 9-.8 11.5-1 2.5-.3 7.7-.7 11.5-1.1 3.9-.3 7.1-.7 7.3-.9.3-.2 5.8-21.5 6.7-25.5.2-.8 1.5-6.2 3-12s2.9-11.3 3.1-12.3c.2-1 .6-2.8.9-4 1.8-6.1 2-5.7-3.8-5.7-2.9 0-5.6.2-5.8.4z"/></svg>